<?xml version="1.0" encoding="utf-8" ?>
<svg baseProfile="full" height="200mm" version="1.1" viewBox="0,0,200,200" width="200mm" xmlns="http://www.w3.org/2000/svg" xmlns:ev="http://www.w3.org/2001/xml-events" xmlns:xlink="http://www.w3.org/1999/xlink"><defs /><rect fill="#1a1a1a" height="200" width="200" x="0" y="0" /><text alignment-baseline="middle" fill="#e1ed5e" style="dominant-baseline: central; font-size:9.0px; font-family:Arial;" text-anchor="middle" x="100.0" y="100.0">2025</text><line stroke="#e1ed5e" stroke-width="0.3" x1="100.0" x2="100.0" y1="15.0" y2="10.0" /><path d="M 100.0 14.0 a86.0,86.0 0 0,1 42.46469731375804,11.215312516191453" fill="none" id="id13" stroke="none" /><text fill="#e1ed5e" style="font-size:6.75px; font-family:Arial;" text-anchor="middle"><textPath startOffset="22.20632615414155" xlink:href="#id13">January</textPath></text><path d="M 100.0 79.0 l 0.0 -14.862528315952368 a35.86252831595237,35.86252831595237 0 0,0 0.6173144725511943,0.005313420558382585 l -0.255833993278666 14.860326272002544" fill="#ffc412" stroke="none" /><line stroke="#e1ed5e" stroke-width="0.3" x1="143.23703022742887" x2="145.7803849466894" y1="26.81831364943548" y2="22.513508569990506" /><path d="M 143.74570117128098 25.957352633546492 a86.0,86.0 0 0,1 28.547481713284135,27.462654790039103" fill="none" id="id14" stroke="none" /><text fill="#e1ed5e" style="font-size:6.75px; font-family:Arial;" text-anchor="middle"><textPath startOffset="19.985693538727396" xlink:href="#id14">February</textPath></text><line stroke="#e1ed5e" stroke-width="0.3" x1="172.23445277983987" x2="176.4835382374775" y1="55.19839476539836" y2="52.563006222186495" /><path d="M 173.08426987136738 54.67131705675599 a86.0,86.0 0 0,1 12.851231095245387,41.99856678651699" fill="none" id="id15" stroke="none" /><text fill="#e1ed5e" style="font-size:6.75px; font-family:Arial;" text-anchor="middle"><textPath startOffset="22.20632615414155" xlink:href="#id15">March</textPath></text><path d="M 118.03404312379186 89.2402003453031 l 12.213615282417539 -7.28710986195786 a35.222319375093036,35.222319375093036 0 0,0 0.3061663640304562,0.5233375614131099 l -12.337241320918322 7.075792888190855" fill="#ffbc11" stroke="none" /><path d="M 119.04729006885535 91.15688171328212 l 4.986431737640455 -2.3150592827218204 a26.49763594253607,26.49763594253607 0 0,0 0.18850882932207755,0.4153542176189704 l -5.02554288392588 2.2288830562607873" fill="#ff4806" stroke="none" /><path d="M 119.196687751892 91.48605970444005 l 1.1733589681706367 -0.520397494056235 a22.28358280605751,22.28358280605751 0 0,0 0.15249323177239854,0.3519754037354546 l -1.182142909785716 0.5001229457341777" fill="#ff0d01" stroke="none" /><path d="M 119.7369772167798 92.82701384747503 l 1.1393139640896368 -0.41405951874157587 a22.212221759345272,22.212221759345272 0 0,0 0.1275054714980183,0.3604751379963461 l -1.1462725163974645 0.3943867543186152" fill="#ff0c01" stroke="none" /><path d="M 120.45610955862082 95.25157060432595 l 2.0541799634331372 -0.4768320434742624 a23.108796841768786,23.108796841768786 0 0,0 0.08660914386079953,0.3882518095814703 l -2.0620834942959747 0.4414020643428282" fill="#ff1802" stroke="none" /><path d="M 120.6074358757038 95.95851677861258 l 23.78690016197618 -4.665032489888141 a45.24003191927631,45.24003191927631 0 0,0 0.1432908558764535,0.7654654817720136 l -23.863676741762493 4.254888930653564" fill="#c9ff1d" stroke="none" /><line stroke="#e1ed5e" stroke-width="0.3" x1="184.98032266829074" x2="189.97916517819016" y1="98.17113171792111" y2="98.06355123074" /><path d="M 185.9800911702706 98.14961562048488 a86.0,86.0 0 0,1 -9.607161424134198,41.387399972396054" fill="none" id="id16" stroke="none" /><text fill="#e1ed5e" style="font-size:6.75px; font-family:Arial;" text-anchor="middle"><textPath startOffset="21.466115282336823" xlink:href="#id16">April</textPath></text><path d="M 120.9764740272857 100.99374915477107 l 2.4231701642845715 0.11479638091187078 a23.425887848633852,23.425887848633852 0 0,0 -0.022548698910494085,0.4026221664060133 l -2.420835114486548 -0.15649026365330737" fill="#ff1d02" stroke="none" /><path d="M 120.95626037817324 101.35467743843564 l 27.43678585745199 1.7735986341815164 a48.49405154397671,48.49405154397671 0 0,0 -0.06101808219527874,0.8325432524625657 l -27.402191216592374 -2.2456150231408523" fill="#a5ff21" stroke="none" /><path d="M 120.8583938346157 102.4346265915055 l 1.8145428943396809 0.21179647948996314 a22.82686169813781,22.82686169813781 0 0,0 -0.04891306309748243,0.3898852388790057 l -1.8106283219953503 -0.24299947265636376" fill="#ff1402" stroke="none" /><path d="M 120.5718875245553 104.21870165774334 l 2.849830811547301 0.584418223880141 a23.909137383288655,23.909137383288655 0 0,0 -0.08614799349408998,0.4024547454606094 l -2.8393487793287675 -0.6333867887569194" fill="#ff2403" stroke="none" /><path d="M 120.32669344350535 105.2749913415812 l 2.4199564914038687 0.6280042336761521 a23.500115744881203,23.500115744881203 0 0,0 -0.10498052686753306,0.3906715941886706 l -2.408787888194558 -0.6695667610403709" fill="#ff1e03" stroke="none" /><path d="M 120.02730092923936 106.31721596034902 l 4.91042708660411 1.5488971016726902 a26.148919926006364,26.148919926006364 0 0,0 -0.13909699920431318,0.428096544521597 l -4.88303783638355 -1.6331925461720824" fill="#ff4306" stroke="none" /><path d="M 119.67450827220406 107.3425965602758 l 2.3557708095801515 0.879182056491802 a23.51448149639783,23.51448149639783 0 0,0 -0.14478842713699414,0.377996894824858 l -2.3402881028496503 -0.9196025181498039" fill="#ff1e03" stroke="none" /><path d="M 119.26925614724726 108.34839909993367 l 2.2309959759109765 0.9665782973107432 a23.431381633837663,23.431381633837663 0 0,0 -0.1635275178810868,0.368711382817921 l -2.2140273732986167 -1.004838016621352" fill="#ff1d02" stroke="none" /><path d="M 118.97047184881838 109.00673069616215 l 0.37071800413618883 0.1760081274774067 a21.410378726944785,21.410378726944785 0 0,0 -0.1609313598425635,0.3315662675699319 l -0.367633387678911 -0.18236335101261408" fill="#ff0000" stroke="none" /><path d="M 118.81262510543309 109.33194174019688 l 2.1731817692483713 1.0779997766301583 a23.425861191537585,23.425861191537585 0 0,0 -0.1822993046344423,0.35969382278326656 l -2.15430379482766 -1.115247811116119" fill="#ff1d02" stroke="none" /><line stroke="#e1ed5e" stroke-width="0.3" x1="174.80103733775053" x2="179.2010983576182" y1="140.37084112569926" y2="142.7455964860345" /><path d="M 175.68104954172406 140.8457921977663 a86.0,86.0 0 0,1 -30.038265399797805,32.042727171017184" fill="none" id="id17" stroke="none" /><text fill="#e1ed5e" style="font-size:6.75px; font-family:Arial;" text-anchor="middle"><textPath startOffset="22.206326154141568" xlink:href="#id17">May</textPath></text><path d="M 118.48025628344425 109.97397251340804 l 1.8370790065251983 0.9914892539913606 a23.08756082953191,23.08756082953191 0 0,0 -0.19176263128064952,0.3481048769958967 l -1.8197399657930393 -1.0229646493850624" fill="#ff1802" stroke="none" /><path d="M 118.30583269289576 110.29060199501025 l 2.3243200917575924 1.3066137648338483 a23.666402711407507,23.666402711407507 0 0,0 -0.20268358504288345,0.3533959147724931 l -2.301484510562329 -1.3464295254646566" fill="#ff2003" stroke="none" /><path d="M 118.12598468904814 110.60418214915192 l 2.093409089105818 1.2246998811038972 a23.425335319729367,23.425335319729367 0 0,0 -0.20661048068550772,0.3462910498415559 l -2.0720177327220832 -1.260553024831557" fill="#ff1d02" stroke="none" /><path d="M 117.75023020441432 111.22182372390056 l 1.2299070663516953 0.7775561294943654 a22.455082446590602,22.455082446590602 0 0,0 -0.20936171121475267,0.3249340251191342 l -1.2163404917598923 -0.7986117545349525" fill="#ff0f01" stroke="none" /><path d="M 117.14729908036423 112.12312394758627 l 1.3856416888855165 0.9796473405271162 a22.696971361508307,22.696971361508307 0 0,0 -0.22828852397251342,0.3170727931192677 l -1.3685733725374003 -1.0033537390975151" fill="#ff1302" stroke="none" /><path d="M 116.498646956653 112.99209946851258 l 2.856957060364251 2.2497523829100436 a24.6364253641694,24.6364253641694 0 0,0 -0.26523116599219876,0.33091666073138126 l -2.8178079823171984 -2.2985968772196754" fill="#ff2e04" stroke="none" /><path d="M 115.80600337817218 113.82643327865902 l 1.8253381133775082 1.5967297381740784 a23.425160836917424,23.425160836917424 0 0,0 -0.2680966715579728,0.3012094525686841 l -1.797582592171197 -1.627913360483629" fill="#ff1d02" stroke="none" /><path d="M 114.81725581225074 114.88116024355365 l 13.745167308817658 13.804447995549621 a40.48056489964353,40.48056489964353 0 0,0 -0.4980074223656028,0.4874050794529053 l -13.505509934076262 -14.0390031779251" fill="#fffd17" stroke="none" /><path d="M 114.29624159901734 115.38237550388516 l 1.061079302322443 1.1416930914798054 a22.55863799547868,22.55863799547868 0 0,0 -0.2867100306860562,0.2619028152024976 l -1.0412697221695228 -1.1597886732688858" fill="#ff1101" stroke="none" /><path d="M 113.20401910651253 116.32954008644616 l 1.5397286186626362 1.904197502130147 a23.448822644914785,23.448822644914785 0 0,0 -0.3160482644877541,0.2510878556833313 l -1.506722861457531 -1.9304192718186042" fill="#ff1d03" stroke="none" /><path d="M 112.92097659922987 116.55440617244103 l 1.4916198771351799 1.911069268746614 a23.424276305995768,23.424276305995768 0 0,0 -0.3199881870486064,0.2453532968325875 l -1.4585029615930798 -1.936461907406573" fill="#ff1d02" stroke="none" /><path d="M 112.34349029814194 116.9893568818739 l 1.4262372648644202 1.9630471856616438 a23.426459764517443,23.426459764517443 0 0,0 -0.32827461494976845,0.23421522153504556 l -1.3922353220657673 -1.9873066690409087" fill="#ff1d02" stroke="none" /><path d="M 111.7513745106137 117.40417183066458 l 1.6284807529492553 2.4118335111914257 a23.91013581271255,23.91013581271255 0 0,0 -0.34308232747304673,0.22737625894162064 l -1.5867237267362444 -2.4395077912243646" fill="#ff2403" stroke="none" /><path d="M 111.1453310114006 117.79835938074945 l 33.4359930342018 53.39507814224836 a84.0,84.0 0 0,0 -1.2320832002707651,0.7568461326864875 l -32.51193063399873 -53.96271274176323" fill="#4dd2ff" stroke="none" /><line stroke="#e1ed5e" stroke-width="0.3" x1="143.8653032363475" x2="146.44561519142675" y1="172.8068346515853" y2="177.08958963109032" /><path d="M 144.38136562736335 173.6633856474863 a86.0,86.0 0 0,1 -40.68145358897372,12.25698825130547" fill="none" id="id18" stroke="none" /><text fill="#e1ed5e" style="font-size:6.75px; font-family:Arial;" text-anchor="middle"><textPath startOffset="21.466115282336833" xlink:href="#id18">June</textPath></text><path d="M 109.89434966115114 118.52300852407294 l 1.1693955504009692 2.189201361372752 a23.48195256883243,23.48195256883243 0 0,0 -0.3581658587732549,0.18737544934627862 l -1.1315387891012185 -2.2090062296637476" fill="#ff1e03" stroke="none" /><path d="M 109.2508944713604 118.85261126421891 l 1.0685733706356744 2.177670324340862 a23.4257157891943,23.4257157891943 0 0,0 -0.3635306675583501,0.17451681215029438 l -1.0309300350770916 -2.1957414129907167" fill="#ff1d02" stroke="none" /><path d="M 108.2653958097858 119.30500536409082 l 0.9546780581629969 2.2297861418803704 a23.425563116733848,23.425563116733848 0 0,0 -0.37205208937020695,0.1555178035310644 l -0.9161545092953288 -2.245888988431408" fill="#ff1d02" stroke="none" /><path d="M 105.88484417918355 120.15858648285463 l 3.8246315793211503 13.101309755919289 a34.648154601926464,34.648154601926464 0 0,0 -0.5739530032715804,0.16220485178613978 l -3.598547407944964 -13.165203401043946" fill="#ffb510" stroke="none" /><path d="M 105.53697534728816 120.25689768951611 l 0.6391360276407558 2.338264541478144 a23.424041238874125,23.424041238874125 0 0,0 -0.3898536324268628,0.10296388764846075 l -0.5987919524023956 -2.348919778430189" fill="#ff1d02" stroke="none" /><path d="M 103.06178313531738 120.77559828337769 l 0.3536529276647208 2.3996967884993783 a23.425616430926386,23.425616430926386 0 0,0 -0.39943064179708304,0.055357447332778593 l -0.3122936946808073 -2.4054288013247596" fill="#ff1d02" stroke="none" /><path d="M 102.34483914955558 120.86867818915974 l 0.19820843793900472 1.7640221106463025 a22.775122697651984,22.775122697651984 0 0,0 -0.3899615109706441,0.040421105068527655 l -0.16781433036275797 -1.7671725841705885" fill="#ff1402" stroke="none" /><path d="M 101.26447882468166 120.96189622390904 l 0.14609079473683773 2.4218199773435853 a23.42622227402341,23.42622227402341 0 0,0 -0.40272122632954094,0.02081608735547081 l -0.10438149999381718 -2.423975871461258" fill="#ff1d02" stroke="none" /><path d="M 100.90346689309514 120.98055641714683 l 0.15651157131585106 3.6345547103326035 a24.637923008305243,24.637923008305243 0 0,0 -0.42386572190035765,0.014598792493082094 l -0.0939254977408411 -3.6367103012517794" fill="#ff2e04" stroke="none" /><line stroke="#e1ed5e" stroke-width="0.3" x1="102.19456741930631" x2="102.32365962044197" y1="184.97166512339345" y2="189.96999836594603" /><path d="M 102.22038585953345 185.97133177190398 a86.0,86.0 0 0,1 -42.740103519485714,-10.115201625700543" fill="none" id="id19" stroke="none" /><text fill="#e1ed5e" style="font-size:6.75px; font-family:Arial;" text-anchor="middle"><textPath startOffset="22.20632615414155" xlink:href="#id19">July</textPath></text><path d="M 99.45781275523022 120.99299961872073 l -0.06267581212733347 2.4267507448479537 a23.427559975581637,23.427559975581637 0 0,0 -0.40304288709996866,-0.013881611960044747 l 0.10443905090194519 -2.4253123344618155" fill="#ff1d02" stroke="none" /><path d="M 97.65516085044442 120.86867818915974 l -0.27080133363209724 2.410086800979334 a23.425252925068172,23.425252925068172 0 0,0 -0.4003181372805807,-0.04847295144446756 l 0.3122468939640673 -2.405068320809518" fill="#ff1d02" stroke="none" /><path d="M 93.76903079525671 120.05430185196036 l -0.5648139559906202 1.8178471424659222 a22.90357112771057,22.90357112771057 0 0,0 -0.37548622192676995,-0.12021883079687953 l 0.5960215230083306 -1.8078554650093361" fill="#ff1502" stroke="none" /><path d="M 91.07499286063937 119.00905698771935 l -1.0319352507477735 2.1978823862886157 a23.42808100064508,23.42808100064508 0 0,0 -0.36356737196068784,-0.1745344324939417 l 1.0696152907087033 -2.1797936772951116" fill="#ff1d02" stroke="none" /><line stroke="#e1ed5e" stroke-width="0.3" x1="58.666819895761336" x2="56.23545636021788" y1="174.27360380694188" y2="178.64263932499728" /><path d="M 58.180547188652646 175.14741091055294 a86.0,86.0 0 0,1 -31.652253787137756,-30.449443065178592" fill="none" id="id20" stroke="none" /><text fill="#e1ed5e" style="font-size:6.75px; font-family:Arial;" text-anchor="middle"><textPath startOffset="22.20632615414155" xlink:href="#id20">August</textPath></text><path d="M 89.7882731507175 118.34994917583269 l -1.1795287445716645 2.119552631379342 a23.425652781512206,23.425652781512206 0 0,0 -0.35066108750209585,-0.19911451717590836 l 1.2158385989949676 -2.0989349484088002" fill="#ff1d02" stroke="none" /><path d="M 88.54995079064634 117.60387380957326 l -0.9477740340870312 1.4571548288568519 a22.738268050373833,22.738268050373833 0 0,0 -0.326267403352876,-0.2162322441245573 l 0.972716136179869 -1.440624563640976" fill="#ff1302" stroke="none" /><path d="M 88.24862548938628 117.40417183066458 l -1.097442805233024 1.6253488593484215 a22.961157725768874,22.961157725768874 0 0,0 -0.32565822617658063,-0.22399069747449626 l 1.125257916032495 -1.606217372508824" fill="#ff1602" stroke="none" /><path d="M 86.51685102203217 116.09983520530335 l -1.5573115566607996 1.859540339317098 a23.4255122259137,23.4255122259137 0 0,0 -0.30691272105786194,-0.26155767921480094 l 1.589089754295718 -1.8324582698793457" fill="#ff1d02" stroke="none" /><path d="M 86.24171649860922 115.8653595955263 l -1.5889865545870303 1.832339265172958 a23.42535470670847,23.42535470670847 0 0,0 -0.3023629299585233,-0.26680013055334567 l 1.6202918374521413 -1.8047159928473233" fill="#ff1d02" stroke="none" /><path d="M 85.97065885151581 115.62618273729859 l -1.3518314050158855 1.5056989734033 a23.02350625056978,23.02350625056978 0 0,0 -0.292618294815703,-0.2672998744013378 l 1.3775492492984431 -1.482206332415386" fill="#ff1702" stroke="none" /><path d="M 85.70375840098266 115.38237550388516 l -8.258198196078466 8.885601488877859 a33.1306121554051,33.1306121554051 0 0,0 -0.4143916475200447,-0.39183316775270804 l 8.409925677989328 -8.742133684379219" fill="#ffa10e" stroke="none" /><path d="M 85.44109423537348 115.13401014063109 l -1.6887293070434264 1.7554373158779597 a23.435850332521312,23.435850332521312 0 0,0 -0.2883168118819352,-0.2821786830714321 l 1.7186960713011559 -1.7261085298839578" fill="#ff1d02" stroke="none" /><path d="M 84.9287848128048 114.62390073753433 l -1.7419672200541223 1.690265542472887 a23.427230396936856,23.427230396936856 0 0,0 -0.27833050016054717,-0.29182841666765774 l 1.770804271593627 -1.6600300092227291" fill="#ff1d02" stroke="none" /><path d="M 84.67929136418377 114.36230785411682 l -1.7697576217314246 1.6590488334890379 a23.425795760483105,23.425795760483105 0 0,0 -0.27324918176613144,-0.296558019438306 l 1.798053211493285 -1.6283395592493877" fill="#ff1d02" stroke="none" /><path d="M 83.95833913139862 113.55231037782056 l -1.8531840021277926 1.5656062666930823 a23.425987206901766,23.425987206901766 0 0,0 -0.2575787691674505,-0.3102702205998462 l 1.8798587711887793 -1.5334747889794749" fill="#ff1d02" stroke="none" /><path d="M 83.72743513129214 113.27417163493432 l -1.6448930905544148 1.3418040352768728 a23.122760313468987,23.122760313468987 0 0,0 -0.24893533003447937,-0.3105850997748018 l 1.667746332643755 -1.3132911019238112" fill="#ff1902" stroke="none" /><path d="M 83.28015986056508 112.70617746262583 l -1.4326321842422742 1.088723254519515 a22.79937580851204,22.79937580851204 0 0,0 -0.2347670545226364,-0.3145088346168093 l 1.4511605054599956 -1.0639015403933976" fill="#ff1402" stroke="none" /><path d="M 83.06392112726016 112.41649034213515 l -9.383840583952598 6.8796541902224915 a32.63555352710311,32.63555352710311 0 0,0 -0.3282518281872236,-0.45591307963583955 l 9.500872204515428 -6.717107505135514" fill="#ff9b0e" stroke="none" /><path d="M 82.6465618267979 111.8261652097733 l -1.4845467136038537 1.0117012272424866 a22.796501688859756,22.796501688859756 0 0,0 -0.21819171652189767,-0.3261670115593818 l 1.5017415355364816 -0.9859973014772838" fill="#ff1402" stroke="none" /><path d="M 82.44556493220864 111.52570212397912 l -1.5091456836775576 0.9908586374089898 a22.805359114938245,22.805359114938245 0 0,0 -0.21262754303070813,-0.33000266862210714 l 1.5259780900853113 -0.9647343688654344" fill="#ff1402" stroke="none" /><path d="M 82.24976979558568 111.22182372390057 l -11.630314060313239 7.352768540769682 a34.75962973177884,34.75962973177884 0 0,0 -0.31537802742632925,-0.5084897987613094 l 11.755156727407524 -7.1514824106431085" fill="#ffb610" stroke="none" /><line stroke="#e1ed5e" stroke-width="0.3" x1="26.63291911575756" x2="22.317208475507996" y1="142.92168965132927" y2="145.44649492493687" /><path d="M 25.769776987707644 143.4266507060508 a86.0,86.0 0 0,1 -11.730757126820373,-40.83630448921669" fill="none" id="id21" stroke="none" /><text fill="#e1ed5e" style="font-size:6.75px; font-family:Arial;" text-anchor="middle"><textPath startOffset="21.46611528233685" xlink:href="#id21">September</textPath></text><path d="M 81.87401531095188 110.60418214915194 l -2.0961032177683676 1.226276017879971 a23.428456623365232,23.428456623365232 0 0,0 -0.20064576937823114,-0.3498428113931828 l 2.1169009832989762 -1.1900133606284813" fill="#ff1d02" stroke="none" /><path d="M 81.35079622478065 109.6543875284942 l -2.158138825613424 1.117233143778884 a23.43017964113317,23.43017964113317 0 0,0 -0.1823329106714626,-0.3597601306825184 l 2.177050406071153 -1.0799188013936807" fill="#ff1d02" stroke="none" /><path d="M 81.18737489456691 109.33194174019688 l -1.6160112286794779 0.8016171349306064 a22.803907514877775,22.803907514877775 0 0,0 -0.17140583512774257,-0.35314678909449954 l 1.6295703204219394 -0.773681389870822" fill="#ff1402" stroke="none" /><path d="M 80.87730276802145 108.67885076344099 l -9.564204129936721 4.340721358909395 a31.503135843870194,31.503135843870194 0 0,0 -0.2198602579447977,-0.49572684025254693 l 9.6375054726128 -4.175446182164152" fill="#ff8c0c" stroke="none" /><path d="M 80.45479744820244 107.68017299344265 l -1.6787865201100665 0.6596693413299575 a22.803742725555384,22.803742725555384 0 0,0 -0.1404121133853436,-0.36657172057844334 l 1.689892913088919 -0.6306740539183563" fill="#ff1402" stroke="none" /><path d="M 80.32549172779594 107.34259656027581 l -2.273107365035257 0.8483317645720108 a23.42624893111968,23.42624893111968 0 0,0 -0.137741590411694,-0.3790056991538574 l 2.2873732164521754 -0.8090782684120362" fill="#ff1d02" stroke="none" /><path d="M 79.97269907076064 106.31721596034903 l -2.3127581590905133 0.7295138174961716 a23.425085712373395,23.425085712373395 0 0,0 -0.11798794857706031,-0.38559144268685147 l 2.324972880173704 -0.6895954022572723" fill="#ff1d02" stroke="none" /><path d="M 79.86692584326677 105.97154293290107 l -11.135266686440731 3.3027605506109805 a32.61474887515132,32.61474887515132 0 0,0 -0.15500914685003603,-0.5396071754745816 l 11.19046847017687 -3.110595899631803" fill="#ff9a0e" stroke="none" /><path d="M 79.67330655649465 105.27499134158121 l -3.5197795546315778 0.9134199188155951 a24.636369626604473,24.636369626604473 0 0,0 -0.10299021476479744,-0.4113947126840886 l 3.5349810836914335 -0.8526973667341147" fill="#ff2e04" stroke="none" /><line stroke="#e1ed5e" stroke-width="0.3" x1="15.007084014347285" x2="10.007500721073583" y1="101.09737516637583" y2="101.16192664675087" /><path d="M 14.007167355692545 101.11028546245083 a86.0,86.0 0 0,1 10.666146001902534,-42.60595125391555" fill="none" id="id22" stroke="none" /><text fill="#e1ed5e" style="font-size:6.75px; font-family:Arial;" text-anchor="middle"><textPath startOffset="22.20632615414155" xlink:href="#id22">October</textPath></text><line stroke="#e1ed5e" stroke-width="0.3" x1="26.266209847984243" x2="21.928928074336255" y1="57.711370442889674" y2="55.22380399835377" /><path d="M 25.398753493254645 57.213857153982495 a86.0,86.0 0 0,1 29.58750427330803,-30.492523968695096" fill="none" id="id23" stroke="none" /><text fill="#e1ed5e" style="font-size:6.75px; font-family:Arial;" text-anchor="middle"><textPath startOffset="21.46611528233685" xlink:href="#id23">November</textPath></text><line stroke="#e1ed5e" stroke-width="0.3" x1="56.762969772571076" x2="54.21961505331055" y1="26.818313649435495" y2="22.513508569990535" /><path d="M 56.25429882871897 25.957352633546506 a86.0,86.0 0 0,1 42.265352541879196,-11.944610805530505" fill="none" id="id24" stroke="none" /><text fill="#e1ed5e" style="font-size:6.75px; font-family:Arial;" text-anchor="middle"><textPath startOffset="22.20632615414155" xlink:href="#id24">December</textPath></text></svg>