<?xml version="1.0" encoding="utf-8" ?>
<svg baseProfile="full" height="200mm" version="1.1" viewBox="0,0,200,200" width="200mm" xmlns="http://www.w3.org/2000/svg" xmlns:ev="http://www.w3.org/2001/xml-events" xmlns:xlink="http://www.w3.org/1999/xlink"><defs /><rect fill="#1a1a1a" height="200" width="200" x="0" y="0" /><text alignment-baseline="middle" fill="#e1ed5e" style="dominant-baseline: central; font-size:9.0px; font-family:Arial;" text-anchor="middle" x="100.0" y="100.0">2024</text><line stroke="#e1ed5e" stroke-width="0.3" x1="100.0" x2="100.0" y1="15.0" y2="10.0" /><path d="M 100.0 14.0 a86.0,86.0 0 0,1 42.35913384403234,11.155469271406648" fill="none" id="id1" stroke="none" /><text fill="#e1ed5e" style="font-size:6.75px; font-family:Arial;" text-anchor="middle"><textPath startOffset="22.145653131862478" xlink:href="#id1">January</textPath></text><line stroke="#e1ed5e" stroke-width="0.3" x1="143.13028292997686" x2="145.6673583964461" y1="26.7553504044142" y2="22.446841604673864" /><path d="M 143.63769802327073 25.89364864446614 a86.0,86.0 0 0,1 29.32050498858742,28.57503671076993" fill="none" id="id2" stroke="none" /><text fill="#e1ed5e" style="font-size:6.75px; font-family:Arial;" text-anchor="middle"><textPath startOffset="20.669276256404974" xlink:href="#id2">February</textPath></text><line stroke="#e1ed5e" stroke-width="0.3" x1="172.87174338648825" x2="177.1583165268699" y1="56.24261187166439" y2="53.66864786411523" /><path d="M 173.72905801456457 55.72781907015455 a86.0,86.0 0 0,1 12.242430191666344,42.057860355516425" fill="none" id="id3" stroke="none" /><text fill="#e1ed5e" style="font-size:6.75px; font-family:Arial;" text-anchor="middle"><textPath startOffset="22.145653131862474" xlink:href="#id3">March</textPath></text><line stroke="#e1ed5e" stroke-width="0.3" x1="184.99686870605535" x2="189.99668451229388" y1="99.2704041080226" y2="99.22748670261217" /><path d="M 185.99683186730306 99.26182062694052 a86.0,86.0 0 0,1 -10.086455211305974,41.156179273409016" fill="none" id="id4" stroke="none" /><text fill="#e1ed5e" style="font-size:6.75px; font-family:Arial;" text-anchor="middle"><textPath startOffset="21.40746469413373" xlink:href="#id4">April</textPath></text><line stroke="#e1ed5e" stroke-width="0.3" x1="174.33088141563837" x2="178.70328620479359" y1="141.23008692659167" y2="143.65538615756765" /><path d="M 175.20536237346943 141.71514677278685 a86.0,86.0 0 0,1 -30.301960400862466,31.631185727798858" fill="none" id="id5" stroke="none" /><text fill="#e1ed5e" style="font-size:6.75px; font-family:Arial;" text-anchor="middle"><textPath startOffset="22.145653131862474" xlink:href="#id5">May</textPath></text><line stroke="#e1ed5e" stroke-width="0.3" x1="143.1302829299769" x2="145.66735839644613" y1="173.24464959558577" y2="177.55315839532614" /><path d="M 143.63769802327073 174.10635135553383 a86.0,86.0 0 0,1 -40.68552437913181,11.842963189579606" fill="none" id="id6" stroke="none" /><text fill="#e1ed5e" style="font-size:6.75px; font-family:Arial;" text-anchor="middle"><textPath startOffset="21.407464694133747" xlink:href="#id6">June</textPath></text><path d="M 110.02825361518725 118.45085714620011 l 2.442969036619237 4.494787870042313 a26.11578104599482,26.11578104599482 0 0,0 -0.395730172062147,0.21070402703251015 l -2.3654500487705366 -4.5360623647973926" fill="#ff3d05" stroke="none" /><path d="M 109.71004243097381 118.62028667847754 l 1.1172102702625908 2.142398002924332 a23.416201148686586,23.416201148686586 0 0,0 -0.3580145123677337,0.18280476096936016 l -1.0802685361812747 -2.161260715566528" fill="#ff1702" stroke="none" /><path d="M 109.06512990194946 118.94263497670748 l 1.8409012809015315 3.846775652356821 a25.264575060377076,25.264575060377076 0 0,0 -0.39281756649778987,0.1838584556426638 l -1.7745950005322355 -3.877810339570018" fill="#ff3104" stroke="none" /><path d="M 108.4095320186766 119.2426549942271 l 17.213374097321996 39.38756857167639 a63.98465779557708,63.98465779557708 0 0,0 -1.0102413453445809,0.43121195766391424 l -16.53469767680698 -39.6772551789997" fill="#34ff5e" stroke="none" /><path d="M 108.07796709384702 119.3841803445677 l 24.233901281541076 58.15254103370309 a84.0,84.0 0 0,0 -1.3357821552382365,0.5432509736828348 l -23.232064665112397 -58.55997926396521" fill="#4dd2ff" stroke="none" /><path d="M 106.72888874123015 119.89276391827305 l 0.6507991315326057 1.9239719929487933 a23.03106074238437,23.03106074238437 0 0,0 -0.3756006967676448,0.12346740940532187 l -0.6176756971172267 -1.9348603237561344" fill="#ff1101" stroke="none" /><path d="M 101.08105385017728 120.97215588758144 l 0.16362716579837772 3.174323303139768 a24.178537758505218,24.178537758505218 0 0,0 -0.41468983080732097,0.017808565635387755 l -0.10911157439022719 -3.1766644372009867" fill="#ff2203" stroke="none" /><line stroke="#e1ed5e" stroke-width="0.3" x1="101.45913802915013" x2="101.54496967792366" y1="184.9874750549273" y2="189.98673829345242" /><path d="M 101.47630435890484 185.9873277026323 a86.0,86.0 0 0,1 -42.54439059252881,-10.42667462771756" fill="none" id="id7" stroke="none" /><text fill="#e1ed5e" style="font-size:6.75px; font-family:Arial;" text-anchor="middle"><textPath startOffset="22.145653131862474" xlink:href="#id7">July</textPath></text><path d="M 100.36049292484886 120.99690560180557 l 0.08900198435244575 5.1839193920524345 a26.184683367045277,26.184683367045277 0 0,0 -0.44949490920129737,0.003858373187277845 l -6.349405890044521e-16 -5.184683367045277" fill="#ff3e05" stroke="none" /><path d="M 100.0 121.0 l 4.1816381451601537e-16 3.4145666718531196 a24.41456667185312,24.41456667185312 0 0,0 -0.41910850230731606,-0.0035975424298710975 l 0.058615577458463484 -3.4140635276176834" fill="#ff2503" stroke="none" /><path d="M 99.63950707515114 120.99690560180557 l -0.07322963545390715 4.265259140730759 a25.265887729077736,25.265887729077736 0 0,0 -0.4335947402734754,-0.011167862443012749 l 0.14643768979812646 -4.263373560937699" fill="#ff3104" stroke="none" /><path d="M 99.27912038922189 120.98762331915562 l -0.11718257218237955 3.41164273168848 a24.413654622820843,24.413654622820843 0 0,0 -0.418722356415634,-0.01798173963590166 l 0.17573068919885232 -3.40912842362675" fill="#ff2503" stroke="none" /><path d="M 98.55909050195518 120.95050786540614 l -0.3953316382850181 5.748035257295899 a26.761614046718666,26.761614046718666 0 0,0 -0.45804542086901195,-0.03545561245696438 l 0.4939460539292662 -5.740401877843881" fill="#ff4606" stroke="none" /><path d="M 98.19965949673042 120.92268563240118 l -2.1128746747564633 24.554806449284104 a45.64554237895834,45.64554237895834 0 0,0 -0.7801050042540922,-0.07387675497497785 l 2.534079242395571 -24.514917938803944" fill="#c8ff1d" stroke="none" /><path d="M 97.84075906011543 120.88869738790638 l -0.3758052946854579 3.635575323000853 a24.654946996705476,24.654946996705476 0 0,0 -0.4206182074692747,-0.047131147472556395 l 0.4381594037555319 -3.628588415021326" fill="#ff2803" stroke="none" /><path d="M 97.12497278360702 120.80226474461374 l -0.47434827444543043 3.432147817558534 a24.46477198774193,24.46477198774193 0 0,0 -0.41552237928856767,-0.06106748045642852 l 0.5331957593416831 -3.423499263803223" fill="#ff2603" stroke="none" /><path d="M 96.41257539226777 120.69131181640829 l -0.7359745217107861 4.244905463609536 a25.308234080408063,25.308234080408063 0 0,0 -0.4274262658800067,-0.07789130396139098 l 0.8087355211418501 -4.231645985716779" fill="#ff3204" stroke="none" /><path d="M 96.05791012581884 120.62667999033965 l -6.550589792876575 34.27545381210168 a55.89580147610962,55.89580147610962 0 0,0 -0.94092201266041,-0.18821075458993472 l 7.138008291067942 -34.15795366084888" fill="#59ff2a" stroke="none" /><path d="M 95.35216902796893 120.47920084513623 l -0.9433687315295073 4.156656694331485 a25.26236312837824,25.26236312837824 0 0,0 -0.422083378204521,-0.09961052798281292 l 1.0145842634739162 -4.139850022702444" fill="#ff3104" stroke="none" /><path d="M 95.00130118170881 120.39639698878247 l -1.0151757034068893 4.142263299458347 a25.26484782270449,25.26484782270449 0 0,0 -0.4203525760342507,-0.10685198105194568 l 1.0861335726665187 -4.124226086571138" fill="#ff3104" stroke="none" /><path d="M 94.30408787586889 120.21278271476187 l -0.8678065310791357 3.0795392325034476 a24.199476529045263,24.199476529045263 0 0,0 -0.3988765002921583,-0.11610713594664643 l 0.9205430437529009 -3.0641884022542856" fill="#ff2203" stroke="none" /><path d="M 93.61358852112213 120.00534299687104 l -1.2977785545594718 4.065272838089583 a25.26739644570122,25.26739644570122 0 0,0 -0.41207184578537565,-0.13545620049651805 l 1.367373137992591 -4.042395716191043" fill="#ff3104" stroke="none" /><path d="M 93.27111125876986 119.89276391827306 l -2.0930175632061885 6.187634520770553 a27.532039764309538,27.532039764309538 0 0,0 -0.4464047915987779,-0.1552827592508913 l 2.1989281268499883 -6.150793328951071" fill="#ff5107" stroke="none" /><path d="M 92.93061703081489 119.77432235084164 l -1.1489711693354239 3.213876850822399 a24.413083526697832,24.413083526697832 0 0,0 -0.39341201461946046,-0.144466341092474 l 1.2039723356090033 -3.1936796607212052" fill="#ff2503" stroke="none" /><path d="M 92.25597844496254 119.51999308798841 l -1.3582791997459573 3.423750877004274 a24.683339850224257,24.683339850224257 0 0,0 -0.39251862980488583,-0.15963390961165055 l 1.416852290741284 -3.3999297108133324" fill="#ff2904" stroke="none" /><path d="M 91.92203290615298 119.3841803445677 l -1.5563036617109334 3.734562235651405 a25.045866554819682,25.045866554819682 0 0,0 -0.3954443267400095,-0.16879166851212735 l 1.620183063621374 -3.707295917479874" fill="#ff2e04" stroke="none" /><path d="M 91.26138138417905 119.09545874513695 l -2.291234694113792 5.0067613086654985 a26.506125246074646,26.506125246074646 0 0,0 -0.41212138306567636,-0.1928936165032729 l 2.3768447910509582 -4.9666914605917" fill="#ff4206" stroke="none" /><path d="M 90.28995756902619 118.62028667847754 l -1.970861870611085 3.7793875047751464 a25.262401485580533,25.262401485580533 0 0,0 -0.3827989853715191,-0.2038188984717373 l 2.035449671769166 -3.744998138580836" fill="#ff3104" stroke="none" /><line stroke="#e1ed5e" stroke-width="0.3" x1="58.13341422392154" x2="55.67067388415222" y1="173.97424548756322" y2="178.32567169271397" /><path d="M 57.64086615596768 174.84453072859336 a86.0,86.0 0 0,1 -31.369924170532247,-30.572349798747897" fill="none" id="id8" stroke="none" /><text fill="#e1ed5e" style="font-size:6.75px; font-family:Arial;" text-anchor="middle"><textPath startOffset="22.145653131862474" xlink:href="#id8">August</textPath></text><path d="M 89.03521579738668 117.91015095944536 l -10.026712537169578 16.37788139276556 a40.20338416057258,40.20338416057258 0 0,0 -0.5855065247785993,-0.36539937533718236 l 10.30638319073789 -16.20334622058683" fill="#fff617" stroke="none" /><path d="M 88.72937992617639 117.7192867562869 l -8.019322075252084 12.607706276288889 a35.942014057542565,35.942014057542565 0 0,0 -0.5177607456203409,-0.3356062599032445 l 8.234568453129436 -12.46818617468175" fill="#ffc111" stroke="none" /><path d="M 87.83215693770417 117.11559508785305 l -2.470685962454433 3.4753292186720404 a25.26405936910182,25.26405936910182 0 0,0 -0.351313575753217,-0.2543239363149145 l 2.529980548581604 -3.4324045109840604" fill="#ff3104" stroke="none" /><path d="M 87.54013794807813 116.9041958592261 l -3.1660740344798657 4.295387489896219 a26.33613891125077,26.33613891125077 0 0,0 -0.3616165208900011,-0.2713637788441176 l 3.2393435442806333 -4.240404683788087" fill="#ff4006" stroke="none" /><path d="M 86.13680546590413 115.77377054828092 l -2.3919419543956275 2.721590861373854 a24.62331935246007,24.62331935246007 0 0,0 -0.315102241223949,-0.28176636711929404 l 2.4383092224429475 -2.6801289643711774" fill="#ff2803" stroke="none" /><path d="M 84.3458050057657 113.99807769240083 l -2.67054290987243 2.388015937392694 a24.582515813044154,24.582515813044154 0 0,0 -0.278588894455593,-0.3169830220324724 l 2.7111428682866157 -2.3418206375489214" fill="#ff2703" stroke="none" /><line stroke="#e1ed5e" stroke-width="0.3" x1="26.387840678322732" x2="22.057713659400548" y1="142.50000000000003" y2="145.00000000000006" /><path d="M 25.521815274538298 143.00000000000003 a86.0,86.0 0 0,1 -11.493303480769221,-40.785679425670985" fill="none" id="id9" stroke="none" /><text fill="#e1ed5e" style="font-size:6.75px; font-family:Arial;" text-anchor="middle"><textPath startOffset="21.40746469413373" xlink:href="#id9">September</textPath></text><path d="M 81.63589988554817 110.18625677009913 l -12.32815492636783 6.83821972211535 a35.09768253495782,35.09768253495782 0 0,0 -0.2877252031484674,-0.5293819666281568 l 12.443725479131626 -6.625582922012606" fill="#ffb610" stroke="none" /><path d="M 81.4637452351635 109.86951160357371 l -3.763730847627937 2.003974683378815 a25.2639869166086,25.2639869166086 0 0,0 -0.2005382268819574,-0.384558492002506 l 3.7975771434848435 -1.939069948271806" fill="#ff3104" stroke="none" /><path d="M 81.29705330413844 109.54985784667822 l -3.798689291971571 1.9396378192135006 a25.265235656638772,25.265235656638772 0 0,0 -0.19391680361252164,-0.38796350694198445 l 3.8314260087958294 -1.8741424561077633" fill="#ff3104" stroke="none" /><path d="M 80.68587082218212 108.24405325689762 l -18.028364598564465 7.695236814302235 a40.60200499252474,40.60200499252474 0 0,0 -0.2681166072601794,-0.6433822530007155 l 18.15780705036113 -7.384622051860238" fill="#fffb17" stroke="none" /><path d="M 80.28708602549918 107.23885506374661 l -3.000820770359368 1.1019429525746696 a24.19674890577117,24.19674890577117 0 0,0 -0.13983396822351388,-0.39114049632083336 l 3.019294908626825 -1.0502674998729147" fill="#ff2203" stroke="none" /><path d="M 80.16572619554312 106.89939002012753 l -24.19832391649207 8.417433185567054 a46.620539842106325,46.620539842106325 0 0,0 -0.2564453336156936,-0.7581350614852354 l 24.33925467168013 -8.000796449607657" fill="#bdff1f" stroke="none" /><path d="M 80.05021161711548 106.5578916946017 l -24.86139251598512 8.172433530006092 a47.17016445565921,47.17016445565921 0 0,0 -0.24626258985380137,-0.7714140552353815 l 24.998019821616175 -7.7444504410793185" fill="#b6ff1f" stroke="none" /><path d="M 79.56144815229197 104.8234425847677 l -0.8306302908592539 0.19602648695376115 a21.853447750996136,21.853447750996136 0 0,0 -0.0830317984784064,-0.36585342449084024 l 0.8338729508953268 -0.18173872852389464" fill="#ff0000" stroke="none" /><path d="M 79.407916724674 104.11899336999214 l -2.1884366367175025 0.4377486180860729 a23.231788243889568,23.231788243889568 0 0,0 -0.07486577368475265,-0.3917293631833569 l 2.195628702684412 -0.40011668986940147" fill="#ff1402" stroke="none" /><path d="M 79.2786578344484 103.40968896794605 l -45.84860735225837 7.544370892372831 a67.46517328390418,67.46517328390418 0 0,0 -0.17823176887734388,-1.1443758110366322 l 45.97136061327398 -6.7562068994047495" fill="#39ff85" stroke="none" /><line stroke="#e1ed5e" stroke-width="0.3" x1="15.003131293944662" x2="10.003315487706104" y1="100.72959589197737" y2="100.7725132973878" /><path d="M 14.003168132696942 100.73817937305945 a86.0,86.0 0 0,1 10.791469493833604,-42.45332614584628" fill="none" id="id10" stroke="none" /><text fill="#e1ed5e" style="font-size:6.75px; font-family:Arial;" text-anchor="middle"><textPath startOffset="22.145653131862435" xlink:href="#id10">October</textPath></text><path d="M 79.00077361379809 99.81974689727619 l -1.878453470260561 -0.01612426382332186 a22.87852267269197,22.87852267269197 0 0,0 0.006742157261020208,-0.39269685978303714 l 1.877899881400875 0.04836803957541136" fill="#ff0f01" stroke="none" /><line stroke="#e1ed5e" stroke-width="0.3" x1="26.387840678322718" x2="22.05771365940052" y1="57.49999999999999" y2="54.99999999999999" /><path d="M 25.521815274538284 56.99999999999999 a86.0,86.0 0 0,1 29.574782752854787,-30.34633250058573" fill="none" id="id11" stroke="none" /><text fill="#e1ed5e" style="font-size:6.75px; font-family:Arial;" text-anchor="middle"><textPath startOffset="21.40746469413373" xlink:href="#id11">November</textPath></text><path d="M 81.99639281039701 89.18935116829357 l -21.325949338755013 -12.805619833628814 a45.87528923495309,45.87528923495309 0 0,0 0.4111999558996579,-0.6716642250856848 l 21.10298141839996 13.169821174839043" fill="#c5ff1e" stroke="none" /><path d="M 85.08716467003674 85.21462403516908 l -17.365362733626778 -17.216941721770397 a45.45360720060073,45.45360720060073 0 0,0 0.5541186048853365,-0.5493825768917321 l 17.067252208611464 17.5125043088908" fill="#caff1d" stroke="none" /><line stroke="#e1ed5e" stroke-width="0.3" x1="56.869717070023135" x2="54.33264160355391" y1="26.7553504044142" y2="22.446841604673864" /><path d="M 56.362301976729285 25.89364864446614 a86.0,86.0 0 0,1 42.16139366436587,-11.88097634709845" fill="none" id="id12" stroke="none" /><text fill="#e1ed5e" style="font-size:6.75px; font-family:Arial;" text-anchor="middle"><textPath startOffset="22.145653131862474" xlink:href="#id12">December</textPath></text><path d="M 90.28995756902619 81.37971332152246 l -1.3790584287818108 -2.6445263728587873 a23.982502621413737,23.982502621413737 0 0,0 0.36667279747231446,-0.18722574303648562 l 1.333458409595914 2.667810067568107" fill="#ff1f03" stroke="none" /><path d="M 91.5904679813234 80.7573450057729 l -8.535469910620668 -19.530825536892017 a42.31448786031755,42.31448786031755 0 0,0 0.6680952374575186,-0.2851701294721115 l 8.198939597992718 19.674470316023534" fill="#efff19" stroke="none" /></svg>