<?xml version="1.0" encoding="utf-8" ?>
<svg baseProfile="full" height="200mm" version="1.1" viewBox="0,0,200,200" width="200mm" xmlns="http://www.w3.org/2000/svg" xmlns:ev="http://www.w3.org/2001/xml-events" xmlns:xlink="http://www.w3.org/1999/xlink"><defs /><rect fill="#1a1a1a" height="200" width="200" x="0" y="0" /><text alignment-baseline="middle" fill="#e1ed5e" style="dominant-baseline: central; font-size:9.0px; font-family:Arial;" text-anchor="middle" x="100.0" y="100.0">2026</text><line stroke="#e1ed5e" stroke-width="0.3" x1="100.0" x2="100.0" y1="15.0" y2="10.0" /><path d="M 100.0 14.0 a86.0,86.0 0 0,1 42.46469731375804,11.215312516191453" fill="none" id="id25" stroke="none" /><text fill="#e1ed5e" style="font-size:6.75px; font-family:Arial;" text-anchor="middle"><textPath startOffset="22.20632615414155" xlink:href="#id25">January</textPath></text><path d="M 104.66035177308747 79.52364482259891 l 1.8868377269226357 -8.29026677378734 a29.502274977222328,29.502274977222328 0 0,0 0.49420007227167,0.1169611901427581 l -2.029261486156829 8.256559671503714" fill="#ff0200" stroke="none" /><line stroke="#e1ed5e" stroke-width="0.3" x1="143.23703022742887" x2="145.7803849466894" y1="26.81831364943548" y2="22.513508569990506" /><path d="M 143.74570117128098 25.957352633546492 a86.0,86.0 0 0,1 28.547481713284135,27.462654790039103" fill="none" id="id26" stroke="none" /><text fill="#e1ed5e" style="font-size:6.75px; font-family:Arial;" text-anchor="middle"><textPath startOffset="19.985693538727396" xlink:href="#id26">February</textPath></text><path d="M 113.6212207817346 84.01681056812373 l 5.502421564400048 -6.456561244185877 a29.4831495432002,29.4831495432002 0 0,0 0.38343004646060935,0.33250675790822076 l -5.612745409507421 6.360889492857985" fill="#ff0200" stroke="none" /><path d="M 117.04232023915458 87.72973835380427 l 6.8031785367355955 -4.898205144610629 a29.38305742801455,29.38305742801455 0 0,0 0.291993965562115,0.4130047567609026 l -6.886485122101593 4.780373887517933" fill="#ff0000" stroke="none" /><line stroke="#e1ed5e" stroke-width="0.3" x1="172.23445277983987" x2="176.4835382374775" y1="55.19839476539836" y2="52.563006222186495" /><path d="M 173.08426987136738 54.67131705675599 a86.0,86.0 0 0,1 12.851231095245387,41.99856678651699" fill="none" id="id27" stroke="none" /><text fill="#e1ed5e" style="font-size:6.75px; font-family:Arial;" text-anchor="middle"><textPath startOffset="22.20632615414155" xlink:href="#id27">March</textPath></text><path d="M 118.03404312379186 89.2402003453031 l 10.072432872076083 -6.009598568384391 a32.728988827499435,32.728988827499435 0 0,0 0.2844933464204175,0.4862913489056747 l -10.174385892966828 5.835327807124821" fill="#ff3705" stroke="none" /><path d="M 118.3937258080291 89.86733742301442 l 10.561389445464496 -5.818016247057202 a33.05787129097796,33.05787129097796 0 0,0 0.2702747027494927,0.5007779765813357 l -10.659972247432453 5.635357287143408" fill="#ff3c05" stroke="none" /><path d="M 119.196687751892 91.48605970444005 l 10.72238615775612 -4.75549515379686 a32.7296333733764,32.7296333733764 0 0,0 0.22397868472367757,0.5169736851102774 l -10.802655552322477 4.57022232409998" fill="#ff3705" stroke="none" /><path d="M 119.61058180528143 92.48833698450437 l 11.314074153966995 -4.333757826299703 a33.1156811966343,33.1156811966343 0 0,0 0.1993176262808373,0.5340721439434667 l -11.386996368749458 4.138362545326903" fill="#ff3d05" stroke="none" /><path d="M 119.85752413597 93.16781622104841 l 11.1526131908762 -3.8371703548683005 a32.794263746312694,32.794263746312694 0 0,0 0.17906090618640685,0.5353693181950301 l -11.217011390834378 3.6446279337509564" fill="#ff3805" stroke="none" /><path d="M 119.97218684219823 93.5106431181261 l 24.528296756857415 -7.969726731348693 a46.790577464741574,46.790577464741574 0 0,0 0.24229612907664744,0.7681449425610191 l -24.661848369702266 7.546331622361255" fill="#f7ff19" stroke="none" /><path d="M 120.18372546131832 94.20196356495316 l 8.096065232631808 -2.325699548840833 a29.42348803302456,29.42348803302456 0 0,0 0.1356468046513846,0.4879937283757234 l -8.134898807849556 2.185994517046158" fill="#ff0100" stroke="none" /><path d="M 120.53481517161879 95.60439243477599 l 11.767873522200421 -2.5189880429153075 a33.034456697119985,33.034456697119985 0 0,0 0.11423740497192378,0.5570621572317048 l -11.809490223087343 2.3160502295201906" fill="#ff3b05" stroke="none" /><path d="M 120.6074358757038 95.95851677861258 l 61.822307627111385 -12.124449664162288 a84.0,84.0 0 0,0 0.26605710436056285,1.4212876901497489 l -62.02185045538181 11.058483896549978" fill="#4dd2ff" stroke="none" /><path d="M 120.78858239683441 97.02765380044208 l 8.391991280290922 -1.19988476907854 a29.477336911291513,29.477336911291513 0 0,0 0.06749468075309624,0.5029137685759995 l -8.411401960101854 1.055252658437876" fill="#ff0200" stroke="none" /><path d="M 120.83666639777658 97.38593545837742 l 11.635856238325267 -1.4597766563690648 a32.72706690888447,32.72706690888447 0 0,0 0.0653133248275845,0.5595646809474512 l -11.65925991615644 1.259268237096761" fill="#ff3705" stroke="none" /><path d="M 120.94382443527127 98.46500227214037 l 24.86629517389166 -1.8224802595236367 a45.93299159690752,45.93299159690752 0 0,0 0.051006200830430094,0.7890433509678995 l -24.893981965726503 1.3941778443027022" fill="#fffc17" stroke="none" /><line stroke="#e1ed5e" stroke-width="0.3" x1="184.98032266829074" x2="189.97916517819016" y1="98.17113171792111" y2="98.06355123074" /><path d="M 185.9800911702706 98.14961562048488 a86.0,86.0 0 0,1 -9.607161424134198,41.387399972396054" fill="none" id="id28" stroke="none" /><text fill="#e1ed5e" style="font-size:6.75px; font-family:Arial;" text-anchor="middle"><textPath startOffset="21.466115282336823" xlink:href="#id28">April</textPath></text><path d="M 120.9904718944345 100.63252640178507 l 11.881661528179468 0.35804171775862453 a32.88705491456465,32.88705491456465 0 0,0 -0.021921363124250526,0.5656929768495524 l -11.873738032204015 -0.5625119416221832" fill="#ff3905" stroke="none" /><path d="M 120.9764740272857 100.99374915477107 l 26.08473205495953 1.2357501264667934 a47.11398714777381,47.11398714777381 0 0,0 -0.045349790690216864,0.8097509770400441 l -26.059595913381784 -1.6845728198422607" fill="#f2ff19" stroke="none" /><path d="M 120.92983693683757 101.71520430193887 l 8.528611552348243 0.6989214138790869 a29.557202004956213,29.557202004956213 0 0,0 -0.045919792777701654,0.5067210868673211 l -8.515317163293465 -0.8456238892949786" fill="#ff0300" stroke="none" /><line stroke="#e1ed5e" stroke-width="0.3" x1="174.80103733775053" x2="179.2010983576182" y1="140.37084112569926" y2="142.7455964860345" /><path d="M 175.68104954172406 140.8457921977663 a86.0,86.0 0 0,1 -30.038265399797805,32.042727171017184" fill="none" id="id29" stroke="none" /><text fill="#e1ed5e" style="font-size:6.75px; font-family:Arial;" text-anchor="middle"><textPath startOffset="22.206326154141568" xlink:href="#id29">May</textPath></text><line stroke="#e1ed5e" stroke-width="0.3" x1="143.8653032363475" x2="146.44561519142675" y1="172.8068346515853" y2="177.08958963109032" /><path d="M 144.38136562736335 173.6633856474863 a86.0,86.0 0 0,1 -40.68145358897372,12.25698825130547" fill="none" id="id30" stroke="none" /><text fill="#e1ed5e" style="font-size:6.75px; font-family:Arial;" text-anchor="middle"><textPath startOffset="21.466115282336833" xlink:href="#id30">June</textPath></text><line stroke="#e1ed5e" stroke-width="0.3" x1="102.19456741930631" x2="102.32365962044197" y1="184.97166512339345" y2="189.96999836594603" /><path d="M 102.22038585953345 185.97133177190398 a86.0,86.0 0 0,1 -42.740103519485714,-10.115201625700543" fill="none" id="id31" stroke="none" /><text fill="#e1ed5e" style="font-size:6.75px; font-family:Arial;" text-anchor="middle"><textPath startOffset="22.20632615414155" xlink:href="#id31">July</textPath></text><line stroke="#e1ed5e" stroke-width="0.3" x1="58.666819895761336" x2="56.23545636021788" y1="174.27360380694188" y2="178.64263932499728" /><path d="M 58.180547188652646 175.14741091055294 a86.0,86.0 0 0,1 -31.652253787137756,-30.449443065178592" fill="none" id="id32" stroke="none" /><text fill="#e1ed5e" style="font-size:6.75px; font-family:Arial;" text-anchor="middle"><textPath startOffset="22.20632615414155" xlink:href="#id32">August</textPath></text><line stroke="#e1ed5e" stroke-width="0.3" x1="26.63291911575756" x2="22.317208475507996" y1="142.92168965132927" y2="145.44649492493687" /><path d="M 25.769776987707644 143.4266507060508 a86.0,86.0 0 0,1 -11.730757126820373,-40.83630448921669" fill="none" id="id33" stroke="none" /><text fill="#e1ed5e" style="font-size:6.75px; font-family:Arial;" text-anchor="middle"><textPath startOffset="21.46611528233685" xlink:href="#id33">September</textPath></text><line stroke="#e1ed5e" stroke-width="0.3" x1="15.007084014347285" x2="10.007500721073583" y1="101.09737516637583" y2="101.16192664675087" /><path d="M 14.007167355692545 101.11028546245083 a86.0,86.0 0 0,1 10.666146001902534,-42.60595125391555" fill="none" id="id34" stroke="none" /><text fill="#e1ed5e" style="font-size:6.75px; font-family:Arial;" text-anchor="middle"><textPath startOffset="22.20632615414155" xlink:href="#id34">October</textPath></text><line stroke="#e1ed5e" stroke-width="0.3" x1="26.266209847984243" x2="21.928928074336255" y1="57.711370442889674" y2="55.22380399835377" /><path d="M 25.398753493254645 57.213857153982495 a86.0,86.0 0 0,1 29.58750427330803,-30.492523968695096" fill="none" id="id35" stroke="none" /><text fill="#e1ed5e" style="font-size:6.75px; font-family:Arial;" text-anchor="middle"><textPath startOffset="21.46611528233685" xlink:href="#id35">November</textPath></text><line stroke="#e1ed5e" stroke-width="0.3" x1="56.762969772571076" x2="54.21961505331055" y1="26.818313649435495" y2="22.513508569990535" /><path d="M 56.25429882871897 25.957352633546506 a86.0,86.0 0 0,1 42.265352541879196,-11.944610805530505" fill="none" id="id36" stroke="none" /><text fill="#e1ed5e" style="font-size:6.75px; font-family:Arial;" text-anchor="middle"><textPath startOffset="22.20632615414155" xlink:href="#id36">December</textPath></text></svg>