<?xml version="1.0" encoding="utf-8" ?>
<svg baseProfile="full" height="200mm" version="1.1" viewBox="0,0,200,200" width="200mm" xmlns="http://www.w3.org/2000/svg" xmlns:ev="http://www.w3.org/2001/xml-events" xmlns:xlink="http://www.w3.org/1999/xlink"><defs /><rect fill="#1a1a1a" height="200" width="200" x="0" y="0" /><text alignment-baseline="middle" fill="#e1ed5e" style="dominant-baseline: central; font-size:9.0px; font-family:Arial;" text-anchor="middle" x="100.0" y="100.0">2026</text><line stroke="#e1ed5e" stroke-width="0.3" x1="100.0" x2="100.0" y1="15.0" y2="10.0" /><path d="M 100.0 14.0 a86.0,86.0 0 0,1 42.46469731375804,11.215312516191453" fill="none" id="id25" stroke="none" /><text fill="#e1ed5e" style="font-size:6.75px; font-family:Arial;" text-anchor="middle"><textPath startOffset="22.20632615414155" xlink:href="#id25">January</textPath></text><path d="M 104.66035177308747 79.52364482259891 l 1.8069885978390408 -7.939430783859774 a29.14246700726632,29.14246700726632 0 0,0 0.4881728379348784,0.11553473850737081 l -1.9433851227364427 7.907150133211535" fill="#ff0200" stroke="none" /><line stroke="#e1ed5e" stroke-width="0.3" x1="143.23703022742887" x2="145.7803849466894" y1="26.81831364943548" y2="22.513508569990506" /><path d="M 143.74570117128098 25.957352633546492 a86.0,86.0 0 0,1 28.547481713284135,27.462654790039103" fill="none" id="id26" stroke="none" /><text fill="#e1ed5e" style="font-size:6.75px; font-family:Arial;" text-anchor="middle"><textPath startOffset="19.985693538727396" xlink:href="#id26">February</textPath></text><path d="M 113.6212207817346 84.01681056812373 l 5.2695644598918 -6.183325880663668 a29.12415094292566,29.12415094292566 0 0,0 0.37876124912669945,0.328458022867347 l -5.375219507665264 6.09170286437665" fill="#ff0200" stroke="none" /><path d="M 117.04232023915458 87.72973835380427 l 6.515274668052346 -4.690917888643028 a29.02829462826046,29.02829462826046 0 0,0 0.28846851226346165,0.40801825308683093 l -6.595055800119691 4.578073135224405" fill="#ff0000" stroke="none" /><line stroke="#e1ed5e" stroke-width="0.3" x1="172.23445277983987" x2="176.4835382374775" y1="55.19839476539836" y2="52.563006222186495" /><path d="M 173.08426987136738 54.67131705675599 a86.0,86.0 0 0,1 12.851231095245387,41.99856678651699" fill="none" id="id27" stroke="none" /><text fill="#e1ed5e" style="font-size:6.75px; font-family:Arial;" text-anchor="middle"><textPath startOffset="22.20632615414155" xlink:href="#id27">March</textPath></text><path d="M 118.03404312379186 89.2402003453031 l 9.64617735412013 -5.755278228600775 a32.23262948003477,32.23262948003477 0 0,0 0.28017879418870817,0.47891638055902885 l -9.743815822779165 5.588382435687851" fill="#ff3404" stroke="none" /><path d="M 118.3937258080291 89.86733742301442 l 10.114441763053874 -5.571803483928175 a32.54759395899087,32.54759395899087 0 0,0 0.2661027748897502,0.4930480278632659 l -10.208852637162089 5.39687447273245" fill="#ff3905" stroke="none" /><path d="M 119.196687751892 91.48605970444005 l 10.26862525178187 -4.554247245206839 a32.23324674935997,32.23324674935997 0 0,0 0.2205817623722019,0.509133119976848 l -10.345497723996752 4.376814980643388" fill="#ff3404" stroke="none" /><path d="M 119.61058180528143 92.48833698450437 l 10.835273590097147 -4.150357429354265 a32.602957405922545,32.602957405922545 0 0,0 0.1962316293993126,0.5258032065621007 l -10.905109807998084 3.9632310857628306" fill="#ff3a05" stroke="none" /><path d="M 119.85752413597 93.16781622104841 l 10.680645497210206 -3.6747850545270055 a32.29514202806019,32.29514202806019 0 0,0 0.17633563728392512,0.5272211110553829 l -10.7423184282659 3.4903908405493085" fill="#ff3505" stroke="none" /><path d="M 119.97218684219823 93.5106431181261 l 23.490283203284175 -7.632455682836038 a45.69914542491199,45.69914542491199 0 0,0 0.23664435530659278,0.7502272752234894 l -23.618183042358975 7.226978241186129" fill="#fffc17" stroke="none" /><path d="M 120.18372546131832 94.20196356495316 l 7.753447662182875 -2.2272782162401072 a29.067014249568846,29.067014249568846 0 0,0 0.13400340569020486,0.48208154792786123 l -7.7906378384394435 2.093485364893294" fill="#ff0100" stroke="none" /><path d="M 120.53481517161879 95.60439243477599 l 11.269868612447992 -2.4123869300963348 a32.525170247867926,32.525170247867926 0 0,0 0.1124762268516554,0.5484740272475976 l -11.309724135214644 2.2180372466853253" fill="#ff3905" stroke="none" /><path d="M 120.6074358757038 95.95851677861258 l 59.20604797132527 -11.611354800471911 a81.33390155364819,81.33390155364819 0 0,0 0.25761264682988955,1.3761770603577583 l -59.39714634206502 10.59049966265159" fill="#49eeff" stroke="none" /><path d="M 120.78858239683441 97.02765380044208 l 8.036850408637246 -1.1491068179889925 a29.11858429592016,29.11858429592016 0 0,0 0.06667323974854768,0.49679307896533825 l -8.055439647443631 1.0105953969589898" fill="#ff0100" stroke="none" /><path d="M 120.83666639777658 97.38593545837742 l 11.143438171039998 -1.3980003345346808 a32.23078889513779,32.23078889513779 0 0,0 0.06432290404814625,0.5510793605490012 l -11.165851428091733 1.205977235660827" fill="#ff3404" stroke="none" /><path d="M 120.94382443527127 98.46500227214037 l 23.8139778575482 -1.7453546755804175 a44.87785175310724,44.87785175310724 0 0,0 0.04983452285113886,0.7709180112252128 l -23.84049297140375 1.3351776001021696" fill="#fff116" stroke="none" /><line stroke="#e1ed5e" stroke-width="0.3" x1="184.98032266829074" x2="189.97916517819016" y1="98.17113171792111" y2="98.06355123074" /><path d="M 185.9800911702706 98.14961562048488 a86.0,86.0 0 0,1 -9.607161424134198,41.387399972396054" fill="none" id="id28" stroke="none" /><text fill="#e1ed5e" style="font-size:6.75px; font-family:Arial;" text-anchor="middle"><textPath startOffset="21.466115282336823" xlink:href="#id28">April</textPath></text><path d="M 120.9904718944345 100.63252640178507 l 11.378841221189672 0.3428897420848881 a32.3840063647326,32.3840063647326 0 0,0 -0.021586048516157957,0.5570399967516503 l -11.371253039822312 -0.5387069858505446" fill="#ff3605" stroke="none" /><path d="M 120.9764740272857 100.99374915477107 l 24.980851680273325 1.1834543884945365 a46.00886872614316,46.00886872614316 0 0,0 -0.044286053737713556,0.7907572391750319 l -24.95677927564808 -1.6132833440049918" fill="#feff18" stroke="none" /><path d="M 120.92983693683757 101.71520430193887 l 8.167689044264849 0.6693437425193244 a29.195069576852525,29.195069576852525 0 0,0 -0.045357187222080424,0.5005127814422056 l -8.154957260765693 -0.8098379125101005" fill="#ff0300" stroke="none" /><path d="M 120.70491114924044 103.5080841355445 l 23.478244182440996 3.977976787883135 a44.81285890470234,44.81285890470234 0 0,0 -0.1354064441169205,0.7594312481057852 l -23.406291295984886 -4.381526786722139" fill="#fff016" stroke="none" /><path d="M 120.5718875245553 104.21870165774334 l 11.046614278199547 2.265342444258724 a32.27650049443896,32.27650049443896 0 0,0 -0.11629678269155773,0.5432998515424458 l -11.005983456783547 -2.455156115217339" fill="#ff3505" stroke="none" /><path d="M 120.23288151984713 105.62410040840565 l 24.044832892979777 6.6837021884797325 a45.95647939505112,45.95647939505112 0 0,0 -0.21841881078182657,0.7603445341875343 l -23.926221445311853 -7.096604198171849" fill="#ffff18" stroke="none" /><path d="M 120.13307415673323 105.97154293290107 l 11.719159940406346 3.4759454108634764 a33.22378444705762,33.22378444705762 0 0,0 -0.16734223383456362,0.5468841025282041 l -11.657590934065649 -3.677156485943738" fill="#ff4406" stroke="none" /><path d="M 119.67450827220406 107.3425965602758 l 7.6647065106360195 2.8604957685285415 a29.181085620866945,29.181085620866945 0 0,0 -0.179680061830941,0.46908794284899513 l -7.614332169211572 -2.9920072782106804" fill="#ff0300" stroke="none" /><path d="M 119.54520255179757 107.68017299344265 l 7.955526851406186 3.1260777324181928 a29.547676261567567,29.547676261567567 0 0,0 -0.19008637227174674,0.4717787871085475 l -7.900537864877047 -3.2625558873695537" fill="#ff0901" stroke="none" /><path d="M 119.41010516605496 108.01547362559984 l 13.08633948430487 5.4040515543178085 a35.15825039686053,35.15825039686053 0 0,0 -0.23580976530442482,0.5573846281010756 l -12.991378737808137 -5.628510708085048" fill="#ff6209" stroke="none" /><path d="M 119.26925614724726 108.34839909993367 l 21.98544185817745 9.52518569569552 a44.96015058877518,44.96015058877518 0 0,0 -0.31377670955283393,0.707483645409525 l -21.81822406389334 -9.902217677597733" fill="#fff216" stroke="none" /><line stroke="#e1ed5e" stroke-width="0.3" x1="174.80103733775053" x2="179.2010983576182" y1="140.37084112569926" y2="142.7455964860345" /><path d="M 175.68104954172406 140.8457921977663 a86.0,86.0 0 0,1 -30.038265399797805,32.042727171017184" fill="none" id="id29" stroke="none" /><text fill="#e1ed5e" style="font-size:6.75px; font-family:Arial;" text-anchor="middle"><textPath startOffset="22.206326154141568" xlink:href="#id29">May</textPath></text><path d="M 118.48025628344425 109.97397251340804 l 23.417043991327613 12.638404442692009 a47.60990823262699,47.60990823262699 0 0,0 -0.39544243521994926,0.7178428839440361 l -23.196025146656154 -13.039617845033849" fill="#e8ff1a" stroke="none" /><path d="M 118.30583269289576 110.29060199501025 l 21.60955723594338 12.147786802934553 a45.789951354189135,45.789951354189135 0 0,0 -0.39215387368240767,0.6837533335136611 l -21.397251366108595 -12.517959982306529" fill="#fffd17" stroke="none" /><path d="M 117.94076556474637 110.91462005526583 l 18.76162091722347 11.414003666309938 a42.960826467511055,42.960826467511055 0 0,0 -0.3897884071975874,0.6284630237332978 l -18.56236787035792 -11.735263021408509" fill="#ffd614" stroke="none" /><path d="M 117.14729908036423 112.12312394758627 l 9.172400904345858 6.484878612030088 a32.233280418595896,32.233280418595896 0 0,0 -0.3242057229729163,0.45029339337553004 l -9.059415388997339 -6.641805610856749" fill="#ff3404" stroke="none" /><path d="M 116.498646956653 112.99209946851258 l 8.833828124760526 6.9563264179279996 a32.24397601253992,32.24397601253992 0 0,0 -0.3471326390746776,0.4331013413289555 l -8.712777573630994 -7.107355592835205" fill="#ff3405" stroke="none" /><path d="M 116.0416608686014 113.55231037782055 l 8.687651099346313 7.339498392152471 a32.3729291861148,32.3729291861148 0 0,0 -0.3632820595163193,0.42257910748267735 l -8.560026530259215 -7.4879545987966765" fill="#ff3605" stroke="none" /><path d="M 115.32070863581623 114.36230785411682 l 6.244381613832204 5.853758675808594 a29.559135024859117,29.559135024859117 0 0,0 -0.3511814540765209,0.36821235059428103 l -6.142693608376719 -5.960378142985382" fill="#ff0901" stroke="none" /><path d="M 115.07121518719521 114.62390073753431 l 8.126882303997249 7.885676015047176 a32.32387310937887,32.32387310937887 0 0,0 -0.39090241003057336,0.39598207755954695 l -7.989939268911139 -8.024398586587388" fill="#ff3505" stroke="none" /><path d="M 114.55890576462653 115.13401014063108 l 7.791051441707183 8.098812742607208 a32.23793799623154,32.23793799623154 0 0,0 -0.4032262421305255,0.3812755800474527 l -7.650489365185851 -8.231722959400583" fill="#ff3404" stroke="none" /><path d="M 113.48314897796784 116.09983520530334 l 5.222721121401264 6.2362990659835145 a29.13438639064544,29.13438639064544 0 0,0 -0.38725131086429343,0.3186814649062976 l -5.114599681992279 -6.32527564974699" fill="#ff0200" stroke="none" /><path d="M 112.92097659922987 116.55440617244103 l 6.90788029630827 8.850403476661764 a32.227130171501116,32.227130171501116 0 0,0 -0.4402398956811532,0.33755717921611245 l -6.754511672133623 -8.967999997705249" fill="#ff3404" stroke="none" /><path d="M 112.34349029814194 116.9893568818739 l 10.190787162813594 14.026415206266353 a38.33760267558195,38.33760267558195 0 0,0 -0.5372242277719643,0.38329522232737345 l -9.947835607192745 -14.199754690437945" fill="#ff920d" stroke="none" /><path d="M 111.1453310114006 117.79835938074945 l 5.0391892146698885 8.047253198540965 a30.49482553724254,30.49482553724254 0 0,0 -0.44728764570981483,0.27476060446203754 l -4.899922369027765 -8.13280226983138" fill="#ff1802" stroke="none" /><line stroke="#e1ed5e" stroke-width="0.3" x1="143.8653032363475" x2="146.44561519142675" y1="172.8068346515853" y2="177.08958963109032" /><path d="M 144.38136562736335 173.6633856474863 a86.0,86.0 0 0,1 -40.68145358897372,12.25698825130547" fill="none" id="id30" stroke="none" /><text fill="#e1ed5e" style="font-size:6.75px; font-family:Arial;" text-anchor="middle"><textPath startOffset="21.466115282336833" xlink:href="#id30">June</textPath></text><path d="M 110.5260780823613 118.17145234162733 l 31.578234247083873 54.514357024881974 a84.0,84.0 0 0,0 -1.2574049323152037,0.7139873368214862 l -30.635180547847472 -55.049847527498095" fill="#4dd2ff" stroke="none" /><path d="M 109.89434966115114 118.52300852407294 l 3.825476027207319 7.161594999903593 a29.11928012679585,29.11928012679585 0 0,0 -0.4441509684043872,0.2323587947980353 l -3.701634156276436 -7.226383213646344" fill="#ff0100" stroke="none" /><path d="M 107.93186726928326 119.44442032107085 l 3.0696713908119966 7.525085675810622 a29.127102612608006,29.127102612608006 0 0,0 -0.46586570874004396,0.18537757988015688 l -2.9396846060300867 -7.576810100096848" fill="#ff0200" stroke="none" /><path d="M 105.53697534728816 120.25689768951611 l 2.1431146738289666 7.840536025849632 a29.128157582000178,29.128157582000178 0 0,0 -0.48478902181913364,0.1280371868412865 l -2.0078352091983356 -7.876264561994502" fill="#ff0200" stroke="none" /><path d="M 103.41894727170886 120.7198165907248 l 1.327945689465626 8.04773778053 a29.1565631940383,29.1565631940383 0 0,0 -0.4958894625401135,0.0774477355668825 l -1.1892203633169953 -8.069403823443988" fill="#ff0200" stroke="none" /><line stroke="#e1ed5e" stroke-width="0.3" x1="102.19456741930631" x2="102.32365962044197" y1="184.97166512339345" y2="189.96999836594603" /><path d="M 102.22038585953345 185.97133177190398 a86.0,86.0 0 0,1 -42.740103519485714,-10.115201625700543" fill="none" id="id31" stroke="none" /><text fill="#e1ed5e" style="font-size:6.75px; font-family:Arial;" text-anchor="middle"><textPath startOffset="22.20632615414155" xlink:href="#id31">July</textPath></text><path d="M 98.73552117531835 120.96189622390904 l -0.48984942309483986 8.12047823326809 a29.135239344622086,29.135239344622086 0 0,0 -0.5003453467280764,-0.0345067445435721 l 0.6295575306018464 -8.110843144208232" fill="#ff0200" stroke="none" /><path d="M 95.86986931433489 120.58985236759428 l -1.6086887321613819 8.019761605989306 a29.17951438985733,29.17951438985733 0 0,0 -0.49161720678455245,-0.10302316558627385 l 1.746497400375321 -7.990882459676491" fill="#ff0200" stroke="none" /><line stroke="#e1ed5e" stroke-width="0.3" x1="58.666819895761336" x2="56.23545636021788" y1="174.27360380694188" y2="178.64263932499728" /><path d="M 58.180547188652646 175.14741091055294 a86.0,86.0 0 0,1 -31.652253787137756,-30.449443065178592" fill="none" id="id32" stroke="none" /><text fill="#e1ed5e" style="font-size:6.75px; font-family:Arial;" text-anchor="middle"><textPath startOffset="22.20632615414155" xlink:href="#id32">August</textPath></text><line stroke="#e1ed5e" stroke-width="0.3" x1="26.63291911575756" x2="22.317208475507996" y1="142.92168965132927" y2="145.44649492493687" /><path d="M 25.769776987707644 143.4266507060508 a86.0,86.0 0 0,1 -11.730757126820373,-40.83630448921669" fill="none" id="id33" stroke="none" /><text fill="#e1ed5e" style="font-size:6.75px; font-family:Arial;" text-anchor="middle"><textPath startOffset="21.46611528233685" xlink:href="#id33">September</textPath></text><line stroke="#e1ed5e" stroke-width="0.3" x1="15.007084014347285" x2="10.007500721073583" y1="101.09737516637583" y2="101.16192664675087" /><path d="M 14.007167355692545 101.11028546245083 a86.0,86.0 0 0,1 10.666146001902534,-42.60595125391555" fill="none" id="id34" stroke="none" /><text fill="#e1ed5e" style="font-size:6.75px; font-family:Arial;" text-anchor="middle"><textPath startOffset="22.20632615414155" xlink:href="#id34">October</textPath></text><line stroke="#e1ed5e" stroke-width="0.3" x1="26.266209847984243" x2="21.928928074336255" y1="57.711370442889674" y2="55.22380399835377" /><path d="M 25.398753493254645 57.213857153982495 a86.0,86.0 0 0,1 29.58750427330803,-30.492523968695096" fill="none" id="id35" stroke="none" /><text fill="#e1ed5e" style="font-size:6.75px; font-family:Arial;" text-anchor="middle"><textPath startOffset="21.46611528233685" xlink:href="#id35">November</textPath></text><line stroke="#e1ed5e" stroke-width="0.3" x1="56.762969772571076" x2="54.21961505331055" y1="26.818313649435495" y2="22.513508569990535" /><path d="M 56.25429882871897 25.957352633546506 a86.0,86.0 0 0,1 42.265352541879196,-11.944610805530505" fill="none" id="id36" stroke="none" /><text fill="#e1ed5e" style="font-size:6.75px; font-family:Arial;" text-anchor="middle"><textPath startOffset="22.20632615414155" xlink:href="#id36">December</textPath></text></svg>